<svg width="60" height="40" viewBox="0 0 60 40" xmlns="http://www.w3.org/2000/svg">
  <rect width="60" height="40" rx="4" fill="#00A859"/>
  <g fill="white">
    <path d="M15 16V20.5C15 22 15.5 23 17 23H19C20.5 23 21 22 21 20.5V16H19V20.5C19 20.8 18.8 21 18.5 21H17.5C17.2 21 17 20.8 17 20.5V16H15Z"/>
    <path d="M22 21H26L22 18.5V16H28V17.5H24L28 20V23H22V21Z"/>
    <path d="M34 18.5C34 17 33.5 16 32 16H30C28.5 16 28 17 28 18.5V20.5C28 22 28.5 23 30 23H32C33.5 23 34 22 34 20.5V20H30V18.5H34ZM32 20.5C32 20.8 31.8 21 31.5 21H30.5C30.2 21 30 20.8 30 20.5V18.5C30 18.2 30.2 18 30.5 18H31.5C31.8 18 32 18.2 32 18.5V20.5Z"/>
    <path d="M39 16H35V23H37V20.5H39C40.5 20.5 41 19.5 41 18.5C41 17 40.5 16 39 16ZM38.5 19H37V17.5H38.5C38.8 17.5 39 17.7 39 18C39 18.8 38.8 19 38.5 19Z"/>
    <path d="M45 16H41V17.5H45C45.5 17.5 46 18 46 18.5V20.5C46 21 45.5 21.5 45 21.5H41V19.5H45V18H41C40.5 18 40 17.5 40 17V16.5C40 16 40.5 15.5 41 15.5H45V16Z"/>
  </g>
</svg>