<svg width="60" height="40" viewBox="0 0 60 40" xmlns="http://www.w3.org/2000/svg">
  <rect width="60" height="40" rx="4" fill="#1A1F71"/>
  <path d="M25.6 26H22.4L20.2 17.8C20.1 17.4 19.9 17.2 19.5 17C18.4 16.5 17.1 16 16 15.8L16.1 15.5H20.9C21.5 15.5 22 16 22.1 16.6L23.4 23.7L26.6 15.5H29.8L25.6 26ZM31.2 26H28.1L30.5 15.5H33.6L31.2 26ZM40.7 18.6C40.7 18 40.3 17.6 39.5 17.2C38.3 16.7 36.7 16.2 34.7 16.2C31.5 16.2 29.2 17.9 29.2 20.4C29.2 22.3 30.8 23.3 32 23.9C33.3 24.5 33.7 24.9 33.7 25.5C33.7 26.4 32.6 26.8 31.6 26.8C30.1 26.8 29.3 26.6 27.9 26L27.4 25.8L26.9 28.7C27.9 29.1 29.7 29.5 31.6 29.5C35 29.5 37.2 27.8 37.2 25.2C37.2 23.7 36.3 22.6 34.4 21.7C33.3 21.1 32.6 20.8 32.6 20.1C32.6 19.5 33.3 18.9 34.7 18.9C35.9 18.9 36.8 19.1 37.6 19.5L38 19.7L40.7 18.6ZM45.5 15.5H43C42.3 15.5 41.8 15.7 41.5 16.5L37 26H40.2L41 23.9H45L45.5 26H48.3L45.5 15.5ZM41.9 21.4L43.5 17.3L44.4 21.4H41.9Z" fill="white"/>
</svg>